<?xml version="1.0" encoding="UTF-8"?>
<svg id="Phoenix" xmlns="http://www.w3.org/2000/svg" viewBox="0 0 793.78 890">
  <defs>
    <style>
      .cls-1 {
        fill: #feee44;
      }

      .cls-1, .cls-2, .cls-3, .cls-4, .cls-5, .cls-6, .cls-7, .cls-8, .cls-9, .cls-10, .cls-11, .cls-12, .cls-13 {
        stroke-width: 0px;
      }

      .cls-2 {
        fill: #9f1d20;
      }

      .cls-3 {
        fill: #ef7023;
      }

      .cls-4 {
        fill: #b32524;
      }

      .cls-5 {
        fill: #cb2827;
      }

      .cls-6 {
        fill: #e04c26;
      }

      .cls-7 {
        fill: #d54126;
      }

      .cls-8 {
        fill: #f99c1c;
      }

      .cls-9 {
        fill: #ffcf30;
      }

      .cls-10 {
        fill: #a91e22;
      }

      .cls-11 {
        fill: #851619;
      }

      .cls-12 {
        fill: #c73727;
      }

      .cls-13 {
        fill: #f47721;
      }
    </style>
  </defs>
  <polygon class="cls-10" points="396.89 890 396.89 706.35 479.18 789.74 396.89 890"/>
  <polygon class="cls-5" points="479.18 789.74 544.74 706.35 396.89 706.35 479.18 789.74"/>
  <polygon class="cls-7" points="499.31 706.35 396.89 706.35 396.89 596.62 499.31 706.35"/>
  <polygon class="cls-13" points="443.99 647.08 624.05 552.05 396.89 596.62 443.99 647.08"/>
  <polygon class="cls-8" points="396.89 596.62 475.76 353.17 486.46 579.05 396.89 596.62"/>
  <polygon class="cls-9" points="624.05 552.05 475.76 353.17 486.46 579.05 624.05 552.05"/>
  <polygon class="cls-3" points="396.89 596.62 396.89 396.03 475.76 353.17 396.89 596.62"/>
  <polygon class="cls-6" points="396.89 396.03 417.46 254.59 475.76 353.17 396.89 396.03"/>
  <polygon class="cls-1" points="475.76 353.17 721.78 492.9 624.05 552.05 475.76 353.17"/>
  <polygon class="cls-9" points="721.78 492.9 793.78 223.73 497.95 365.78 721.78 492.9"/>
  <polygon class="cls-8" points="760.62 239.66 698.63 54 640.35 297.41 760.62 239.66"/>
  <polygon class="cls-13" points="689.43 92.43 536.62 0 675.25 151.67 689.43 92.43"/>
  <polygon class="cls-5" points="417.46 254.59 347.39 250.95 408.46 316.53 417.46 254.59"/>
  <polygon class="cls-11" points="347.39 250.95 336.46 267.67 408.46 316.53 347.39 250.95"/>
  <polygon class="cls-5" points="336.46 267.67 295.95 297.41 363.18 285.8 336.46 267.67"/>
  <polygon class="cls-12" points="329.57 291.6 403.95 347.51 408.46 316.53 363.18 285.8 329.57 291.6"/>
  <polygon class="cls-4" points="364.28 317.69 329.57 390.14 396.89 396.03 403.95 347.51 364.28 317.69"/>
  <polygon class="cls-6" points="640.35 297.41 751.18 211.38 760.62 239.66 640.35 297.41"/>
  <polygon class="cls-10" points="329.57 291.6 370.52 290.78 363.18 285.8 329.57 291.6"/>
  <polygon class="cls-2" points="396.89 396.03 348.13 351.39 329.57 390.14 396.89 396.03"/>
  <polygon class="cls-4" points="396.89 890 396.89 706.35 314.6 789.74 396.89 890"/>
  <polygon class="cls-5" points="314.6 789.74 249.05 706.35 396.89 706.35 314.6 789.74"/>
  <polygon class="cls-6" points="294.48 706.35 396.89 706.35 396.89 596.62 294.48 706.35"/>
  <polygon class="cls-13" points="349.79 647.08 169.73 552.05 396.89 596.62 349.79 647.08"/>
  <polygon class="cls-8" points="396.89 596.62 318.03 353.17 307.32 579.05 396.89 596.62"/>
  <polygon class="cls-9" points="169.73 552.05 318.03 353.17 307.32 579.05 169.73 552.05"/>
  <polygon class="cls-13" points="396.89 596.62 396.89 396.03 318.03 353.17 396.89 596.62"/>
  <polygon class="cls-1" points="318.03 353.17 72.01 492.9 169.73 552.05 318.03 353.17"/>
  <polygon class="cls-9" points="72.01 492.9 0 223.73 295.83 365.78 72.01 492.9"/>
  <polygon class="cls-8" points="33.16 239.66 95.15 54 153.43 297.41 33.16 239.66"/>
  <polygon class="cls-13" points="104.35 92.43 257.16 0 118.54 151.67 104.35 92.43"/>
  <polygon class="cls-6" points="153.43 297.41 42.6 211.38 33.16 239.66 153.43 297.41"/>
</svg>